<svg xmlns="http://www.w3.org/2000/svg" viewBox="0 0 110.833 30"><path d="M107.392 167.931h-.697v-2.553h-2.224v2.553h-.694v-5.523h.694v2.375h2.224v-2.375h.697zM109.682 167.404c.092 0 .18-.013.261-.04a.967.967 0 0 0 .401-.256.803.803 0 0 0 .122-.174v-.964h-.347c-.16 0-.303.018-.432.052a.995.995 0 0 0-.328.152.658.658 0 0 0-.209.244.73.73 0 0 0-.073.333c0 .123.012.225.036.308.026.084.063.15.114.202a.42.42 0 0 0 .188.11.955.955 0 0 0 .267.033m.88.527a.873.873 0 0 1-.053-.191 3.19 3.19 0 0 1-.032-.25c-.047.07-.101.136-.162.199-.061.062-.13.117-.206.164a1.043 1.043 0 0 1-.246.112.95.95 0 0 1-.281.041c-.178 0-.338-.025-.481-.075a.97.97 0 0 1-.604-.591 1.459 1.459 0 0 1-.082-.51c0-.194.034-.374.102-.538.067-.164.167-.306.298-.426.132-.12.297-.213.497-.282.2-.068.43-.102.695-.102h.46v-.43c0-.242-.055-.413-.16-.515-.108-.103-.271-.154-.49-.154a.756.756 0 0 0-.287.05.58.58 0 0 0-.341.336.656.656 0 0 0-.045.242h-.661c0-.145.032-.289.095-.431.063-.144.154-.272.273-.385.118-.114.261-.205.43-.274.17-.07.36-.105.569-.105.187 0 .358.022.514.067.154.044.29.117.402.216.114.1.202.228.264.385s.093.35.093.575v1.991c0 .067.002.138.008.213.004.074.012.148.024.22a2.147 2.147 0 0 0 .095.389v.06zM112.207 163.89h.664v3.478h1.46v-3.478h.658v3.478h.426l-.068 1.762h-.586v-1.199h-2.554zM116.871 167.931h-.661v-4.04h.661zm-.698-5.113c0-.111.03-.206.093-.283.062-.077.156-.116.28-.116.125 0 .218.039.282.118a.436.436 0 0 1 .096.281.426.426 0 0 1-.094.28c-.062.075-.158.112-.285.112-.123 0-.217-.037-.279-.111a.423.423 0 0 1-.093-.28M118.432 166.105c0 .225.023.42.069.586.046.167.11.306.191.417.08.11.175.194.285.25.11.056.23.084.36.084.6 0 .9-.446.9-1.337v-.381c0-.221-.024-.416-.07-.583a1.3 1.3 0 0 0-.19-.418.776.776 0 0 0-1.287 0 1.33 1.33 0 0 0-.19.418 2.21 2.21 0 0 0-.068.583zm-.66-.381c0-.316.04-.593.12-.83.081-.239.192-.437.333-.597.14-.159.305-.28.495-.36.19-.081.392-.121.608-.121.22 0 .425.04.617.12.19.082.358.202.499.361.14.16.25.358.332.596.08.238.122.514.122.83v.382c0 .314-.041.59-.122.828a1.748 1.748 0 0 1-.332.595 1.364 1.364 0 0 1-.495.358c-.19.08-.394.12-.612.12-.22 0-.425-.04-.615-.12-.19-.079-.357-.199-.497-.358a1.743 1.743 0 0 1-.332-.595 2.565 2.565 0 0 1-.122-.828zM124.587 167.931h-.657v-1.725h-1.457v1.725h-.664v-4.04h.664v1.75h1.457v-1.75h.657zM126.84 167.404c.09 0 .179-.013.26-.04a.973.973 0 0 0 .401-.256.776.776 0 0 0 .122-.174v-.964h-.347c-.16 0-.303.018-.43.052-.13.036-.24.086-.33.152a.686.686 0 0 0-.21.244.744.744 0 0 0-.072.333c0 .123.013.225.037.308.026.084.063.15.113.202a.43.43 0 0 0 .188.11.963.963 0 0 0 .267.033m.88.527a.938.938 0 0 1-.053-.191 3.823 3.823 0 0 1-.032-.25c-.046.07-.101.136-.162.199a1.108 1.108 0 0 1-.451.276.96.96 0 0 1-.283.041c-.176 0-.336-.025-.48-.075a.966.966 0 0 1-.602-.591 1.442 1.442 0 0 1-.083-.51c0-.194.034-.374.101-.538.067-.164.167-.306.299-.426.132-.12.297-.213.496-.282.2-.068.432-.102.695-.102h.459v-.43c0-.242-.053-.413-.16-.515-.107-.103-.27-.154-.49-.154a.757.757 0 0 0-.285.05.635.635 0 0 0-.212.137.607.607 0 0 0-.174.44h-.662c0-.144.032-.288.096-.43.063-.144.154-.272.272-.385.118-.114.262-.205.432-.274.169-.07.358-.105.567-.105.187 0 .358.022.514.067.156.044.29.117.404.216a1 1 0 0 1 .262.385c.062.157.094.35.094.575v1.991a3.167 3.167 0 0 0 .031.433c.012.073.026.142.042.208.016.066.035.126.055.18v.06zM132.153 163.89v4.041h-.66v-3.47h-1.061l-.037 1.159c-.016.383-.043.719-.086 1.008-.043.289-.11.53-.199.722a.998.998 0 0 1-.356.435 1.003 1.003 0 0 1-.562.146h-.183l.015-.616.127-.004a.393.393 0 0 0 .274-.095.65.65 0 0 0 .17-.299c.043-.136.073-.31.091-.525.02-.214.036-.471.048-.772l.063-1.73zM133.92 165.847v1.52h.821c.115 0 .211-.02.29-.063a.537.537 0 0 0 .19-.168.694.694 0 0 0 .105-.24 1.184 1.184 0 0 0 0-.548.769.769 0 0 0-.105-.25.55.55 0 0 0-.19-.182.566.566 0 0 0-.29-.069zm0-.563h.821c.21 0 .394.033.552.099.157.066.29.156.399.272.109.116.19.254.245.415.055.16.082.335.082.524 0 .187-.027.362-.082.525a1.188 1.188 0 0 1-.245.424c-.108.12-.242.214-.4.284-.157.07-.341.104-.55.104h-1.48v-4.04h.658zM139.698 167.931h-.658v-1.725h-1.457v1.725h-.665v-4.04h.665v1.75h1.457v-1.75h.658zM142.935 163.89h.658v4.041h-.658v-2.946l-1.464 2.946h-.66v-4.04h.66v2.95zM147.219 162.419c0 .146-.025.282-.076.403a.876.876 0 0 1-.223.316 1.027 1.027 0 0 1-.353.207c-.137.05-.293.075-.464.075-.172 0-.327-.025-.465-.075a1.047 1.047 0 0 1-.353-.207.904.904 0 0 1-.225-.316 1.009 1.009 0 0 1-.078-.403h.564c0 .074.01.145.03.213.02.067.052.126.095.177a.463.463 0 0 0 .172.121.67.67 0 0 0 .26.045.657.657 0 0 0 .255-.045.455.455 0 0 0 .27-.298.757.757 0 0 0 .031-.213zm-.389 1.471h.658v4.042h-.658v-2.947l-1.463 2.947h-.661v-4.042h.66v2.95zM105.314 172.797a.71.71 0 0 0-.385.102.815.815 0 0 0-.267.276 1.27 1.27 0 0 0-.154.404 2.28 2.28 0 0 0-.049.48v.086c0 .19.016.37.049.54.032.17.083.32.154.448.069.129.158.23.267.306a.66.66 0 0 0 .39.114.661.661 0 0 0 .39-.114.887.887 0 0 0 .269-.306c.07-.128.124-.278.156-.448.034-.17.05-.35.05-.54v-.086c0-.167-.016-.327-.05-.48a1.281 1.281 0 0 0-.156-.404.736.736 0 0 0-.664-.378m.135-.568c.222 0 .419.047.592.138.173.093.319.221.437.385s.208.358.27.58c.063.223.094.466.094.727v.086c0 .282-.034.542-.1.783-.068.24-.167.448-.298.623-.13.176-.29.313-.479.413-.189.1-.405.15-.646.15a1.353 1.353 0 0 1-1.123-.563 1.925 1.925 0 0 1-.299-.623 2.834 2.834 0 0 1-.103-.783v-.37c0-.457.039-.859.114-1.202.077-.344.182-.635.318-.875.136-.238.297-.427.486-.567.188-.14.395-.235.621-.287.108-.025.207-.052.3-.082a.976.976 0 0 0 .238-.113.48.48 0 0 0 .157-.166.497.497 0 0 0 .056-.244h.534c0 .243-.034.436-.101.578a.851.851 0 0 1-.263.333c-.109.08-.23.139-.366.178-.135.038-.273.076-.412.113a1.847 1.847 0 0 0-.386.147c-.122.065-.232.15-.33.257a1.486 1.486 0 0 0-.254.395c-.07.157-.123.348-.155.572.134-.172.293-.312.476-.42.183-.11.39-.163.622-.163M109.158 175.512c.092 0 .18-.014.262-.041a.98.98 0 0 0 .4-.256.755.755 0 0 0 .122-.174v-.963h-.347c-.16 0-.303.017-.431.052a1.001 1.001 0 0 0-.328.151.663.663 0 0 0-.21.244.736.736 0 0 0-.073.334c0 .121.012.224.037.307a.493.493 0 0 0 .112.202.44.44 0 0 0 .19.11.952.952 0 0 0 .266.034m.882.527a.803.803 0 0 1-.054-.193 3.084 3.084 0 0 1-.033-.248c-.047.07-.1.136-.162.197a1.06 1.06 0 0 1-.452.278.964.964 0 0 1-.282.04c-.177 0-.337-.025-.48-.074a.974.974 0 0 1-.602-.592 1.432 1.432 0 0 1-.083-.51c0-.194.034-.374.101-.537.067-.165.167-.307.3-.426.131-.12.296-.214.496-.282.198-.07.43-.103.694-.103h.46v-.43c0-.241-.054-.413-.161-.515-.107-.102-.27-.154-.49-.154a.76.76 0 0 0-.285.051.575.575 0 0 0-.341.336.639.639 0 0 0-.045.24h-.662c0-.143.031-.287.096-.43.063-.143.154-.271.272-.385.119-.114.262-.204.432-.275a1.48 1.48 0 0 1 .567-.104c.187 0 .358.023.515.067a.973.973 0 0 1 .666.601c.062.158.093.35.093.576v1.99a3.186 3.186 0 0 0 .032.434 1.912 1.912 0 0 0 .095.388v.06zM114.806 176.039h-.658v-1.726h-1.456v1.726h-.665v-4.041h.665v1.751h1.456v-1.751h.658zM117.302 174.317h-.374v1.722h-.662v-4.041h.662v1.71h.328l1.102-1.71h.788l-1.348 1.923 1.445 2.118h-.829zM123.645 173.61l.986-3.096h.804l-1.59 4.601c-.05.13-.104.254-.161.374-.057.12-.127.227-.21.321a.923.923 0 0 1-.306.224c-.12.055-.27.083-.453.083-.027 0-.058 0-.092-.004l-.1-.008c-.031-.002-.06-.006-.085-.009a.28.28 0 0 1-.053-.013l.015-.577a.41.41 0 0 0 .056.005l.089.004c.03 0 .06.002.088.004l.067.002a.383.383 0 0 0 .207-.05.475.475 0 0 0 .136-.133.886.886 0 0 0 .093-.187c.025-.068.05-.139.072-.21l.11-.33-1.518-4.097h.774zM127.23 174.317h-.373v1.722h-.662v-4.041h.662v1.71h.329l1.101-1.71h.788l-1.348 1.923 1.445 2.118h-.828zM132.411 173.835c0-.453-.07-.788-.209-1.003-.14-.216-.363-.323-.673-.323a.707.707 0 0 0-.434.133.975.975 0 0 0-.286.342v2.102a.986.986 0 0 0 .28.335.727.727 0 0 0 .447.128c.303 0 .523-.109.664-.328.14-.22.211-.556.211-1.009zm.657.377c0 .64-.114 1.117-.345 1.431-.23.313-.556.47-.977.47-.212 0-.394-.039-.547-.118a1.08 1.08 0 0 1-.39-.341v1.938h-.658v-5.594h.598l.034.448c.106-.17.238-.299.394-.389.156-.089.341-.134.557-.134.217 0 .409.037.575.111.164.076.304.19.415.346.113.156.199.355.257.596.058.241.087.528.087.859zM135.463 175.512a.82.82 0 0 0 .261-.041.962.962 0 0 0 .402-.256.783.783 0 0 0 .12-.174v-.963h-.346c-.16 0-.304.017-.431.052-.13.035-.238.085-.33.151a.676.676 0 0 0-.281.578c0 .121.012.224.037.307a.476.476 0 0 0 .112.202.44.44 0 0 0 .188.11.965.965 0 0 0 .268.034m.881.527a.852.852 0 0 1-.055-.193 3.457 3.457 0 0 1-.031-.248c-.047.07-.101.136-.162.197a1.091 1.091 0 0 1-.452.278.967.967 0 0 1-.282.04c-.177 0-.337-.025-.48-.074a.978.978 0 0 1-.368-.224c-.102-.1-.18-.223-.236-.368a1.465 1.465 0 0 1-.082-.51c0-.194.035-.374.102-.537.066-.165.166-.307.299-.426.132-.12.296-.214.496-.282.2-.07.43-.103.694-.103h.46v-.43c0-.241-.054-.413-.16-.515-.107-.102-.271-.154-.49-.154a.757.757 0 0 0-.285.051.58.58 0 0 0-.341.336.639.639 0 0 0-.046.24h-.661c0-.143.031-.287.095-.43.064-.143.154-.271.273-.385.118-.114.261-.204.43-.275.17-.07.36-.104.568-.104.187 0 .358.023.514.067a.98.98 0 0 1 .666.601c.064.158.094.35.094.576v1.99a2.65 2.65 0 0 0 .032.434 2.066 2.066 0 0 0 .096.388v.06zM139.082 170.93c0-.113.034-.207.104-.284.067-.078.168-.116.303-.116.135 0 .237.038.306.116.07.077.106.171.106.284a.393.393 0 0 1-.106.28c-.07.074-.171.112-.306.112-.135 0-.236-.037-.303-.112a.393.393 0 0 1-.104-.28m-.096 5.109h-.662v-4.041h.662zm-1.51-5.117c0-.112.035-.206.103-.281.069-.077.17-.115.305-.115.134 0 .236.039.306.115.07.075.104.169.104.281a.389.389 0 0 1-.104.28c-.07.075-.172.112-.306.112-.135 0-.236-.037-.305-.112a.4.4 0 0 1-.103-.28M143.25 176.039h-.656v-1.726h-1.457v1.726h-.664v-4.041h.664v1.751h1.457v-1.751h.657zM146.833 171.998h.657v4.04h-.657v-2.946l-1.464 2.947h-.661v-4.041h.66v2.95z" style="fill-opacity:1;fill-rule:nonzero;stroke:none;stroke-width:.35277778" transform="matrix(1.97565 0 0 1.97565 -180.555 -320.86)"/><path d="M98.543 170.367c-.703 1.54-1.136 3.24-1.32 5.191H93.7c-.093-1.322-.267-3.215-1.153-5.19-.181-.402-.387-.8-.613-1.185.229-.429.435-.868.616-1.31.63-1.538 1.005-3.152 1.148-4.924h3.525c.157 1.523.62 3.262 1.316 4.926.184.44.39.878.617 1.308-.225.386-.43.784-.614 1.184m1.126-1.302a16.362 16.362 0 0 1-.665-1.392c-.71-1.702-1.171-3.48-1.298-5.004a.255.255 0 0 0-.252-.236h-3.989a.255.255 0 0 0-.252.24c-.123 1.811-.492 3.447-1.128 5.002-.192.468-.414.936-.662 1.388a.266.266 0 0 0 .004.261c.248.408.47.831.662 1.259.903 2.012 1.031 3.884 1.124 5.251.01.135.12.24.252.24h3.989c.131 0 .24-.102.252-.236.165-1.99.59-3.708 1.296-5.253.194-.428.417-.852.661-1.263a.26.26 0 0 0 .006-.257" style="fill:#00854a;fill-opacity:1;fill-rule:nonzero;stroke:none;stroke-width:.35277778" transform="matrix(1.97565 0 0 1.97565 -180.555 -320.86)"/><path d="M97.99 170.25c.145-.364.308-.727.487-1.08a34.84 34.84 0 0 0-.15-.292c-.15-.287-.305-.585-.422-.905-.506-1.388-.86-2.83-1.017-4.131l-2.8 11.149h2.76a17.305 17.305 0 0 1 1.142-4.74" style="fill:#00854a;fill-opacity:1;fill-rule:nonzero;stroke:none;stroke-width:.35277778" transform="matrix(1.97565 0 0 1.97565 -180.555 -320.86)"/></svg>